PathFileType	4	(x/y/z)	S01_P20_T24
DataRate	CameraRate	NumFrames	NumMarkers	Units	OrigDataRate	OrigDataStartFrame	OrigNumFrames
240	240	10	51	mm	240	251	400
Frame#	Time	Sternum			R.Acromium			L.Acromium			Top.Head			R.ASIS			L.ASIS			R.PSIS			L.PSIS			R.Great.Tro			L.Great.Tro			R.Iliac.Crest			L.Iliac.Crest			V.Sacral			R.Thigh.Upper.Post			R.Thigh.Lower.Ant			R.Thigh.Lower.Post			R.Thigh.Upper.Ant			R.Knee.Lat			R.Knee.Med			R.Shank.Upper.Post			R.Shank.Lower.Ant			R.Shank.Lower.Post			R.Shank.Upper.Ant			R.Ankle.Lat			R.Ankle.Med			R.Heel.Upper			R.Heel.Med			R.Heel.Lat			R.Toe.Lat			R.Toe.Med			R.Toe.Tip			L.Thigh.Upper.Post			L.Thigh.Lower.Ant			L.Thigh.Lower.Post			L.Thigh.Upper.Ant			L.Knee.Lat			L.Knee.Med			L.Shank.Upper.Post			L.Shank.Lower.Ant			L.Shank.Lower.Post			L.Shank.Upper.Ant			L.Ankle.Lat			L.Ankle.Med			L.Heel.Upper			L.Heel.Med			L.Heel.Lat			L.Toe.Lat			L.Toe.Med			L.Toe.Tip			Cervical.Spine			Back			
		X1	Y1	Z1	X2	Y2	Z2	X3	Y3	Z3	X4	Y4	Z4	X5	Y5	Z5	X6	Y6	Z6	X7	Y7	Z7	X8	Y8	Z8	X9	Y9	Z9	X10	Y10	Z10	X11	Y11	Z11	X12	Y12	Z12	X13	Y13	Z13	X14	Y14	Z14	X15	Y15	Z15	X16	Y16	Z16	X17	Y17	Z17	X18	Y18	Z18	X19	Y19	Z19	X20	Y20	Z20	X21	Y21	Z21	X22	Y22	Z22	X23	Y23	Z23	X24	Y24	Z24	X25	Y25	Z25	X26	Y26	Z26	X27	Y27	Z27	X28	Y28	Z28	X29	Y29	Z29	X30	Y30	Z30	X31	Y31	Z31	X32	Y32	Z32	X33	Y33	Z33	X34	Y34	Z34	X35	Y35	Z35	X36	Y36	Z36	X37	Y37	Z37	X38	Y38	Z38	X39	Y39	Z39	X40	Y40	Z40	X41	Y41	Z41	X42	Y42	Z42	X43	Y43	Z43	X44	Y44	Z44	X45	Y45	Z45	X46	Y46	Z46	X47	Y47	Z47	X48	Y48	Z48	X49	Y49	Z49	X50	Y50	Z50	X51	Y51	Z51	

251	1.0417	72.576	1243.5	268.02	-39.954	1492.9	457.94	-87.119	1508.4	126.67	-44.075	1822.1	292.16	27.828	983.67	428.08	28.294	992.66	161.39	-209.46	1034.9	331.09	-210.77	1030.1	228.2	-57.289	935.09	504.84	-67.613	943.82	78.48	-54.724	1084.7	493.49	-82.378	1074.3	86.098	-222.28	994.97	277.94	-117.34	637.74	486.29	-57.154	556.16	470.82	-125.81	549.62	472.47	-44.534	645.51	484.84	-124.4	480.75	471.04	-107.04	474.87	327.95	-266.58	390.98	486.39	-271.49	287.54	448.7	-314.31	340	475.02	-225.8	342.59	466.94	-446.95	181.35	438.36	-412.3	170.79	347.89	-518.71	194.19	376.47	-519.47	164.55	345.04	-529.2	161.91	408.88	-388.62	47.126	473.66	-350.23	47.655	350.78	-289.54	40.991	408.49	14.561	665.25	104.84	120.11	633.02	102.2	59.154	587.32	123.81	66.868	709.83	82.132	141.83	532.12	114.35	161.63	545.44	253.79	105.86	395.62	92.155	168.88	307.77	118.88	109.49	317.69	94.314	166.48	384.46	112.3	96.807	105.03	124.52	123.34	114.84	222.05	27.935	70.783	171.04	39.152	45.894	204.58	37.127	44.235	142.48	244.55	44.123	103.59	273.35	53.643	224.98	333.74	67.704	171.88	-148.93	1557.7	304.23	-228.14	1241.6	319.52
252	1.0458	78.33	1244	267.35	-34.78	1493.5	456.86	-81.228	1508.8	125.52	-38.777	1822.5	290.98	33.602	984.21	427.39	34.411	993.15	160.74	-203.57	1035.1	330.44	-204.78	1030.4	227.53	-51.295	935.33	504.2	-61.523	944.21	77.895	-48.846	1085.5	492.61	-76.286	1074.6	85.51	-216.31	995.22	277.25	-108.58	637.26	486.74	-47.514	556.21	472.08	-116.12	549.01	473.22	-35.836	645.73	485.7	-113.95	480.44	472.11	-95.677	473.94	329.1	-257.03	392.8	487.11	-263.57	289.43	449.62	-305.55	342.66	475.77	-217.01	343.72	467.9	-440.51	186.31	438.95	-405.92	174.79	348.59	-511.34	201.59	376.82	-513.09	172.21	345.19	-523.07	169.59	409	-386.98	49.524	473.65	-348.66	49.148	351.02	-288.57	40.571	408.73	19.701	665.19	104.49	125.12	632.6	101.75	64.046	587.13	123.47	72.138	709.58	81.748	146.48	531.55	114.06	166.71	545.1	253.37	109.47	395.45	91.939	171.63	307.01	118.77	112.35	317.5	94.12	169.97	383.72	112.13	97.193	105.05	124.59	123.77	114.64	222.04	28.127	71.07	170.99	39.183	46.095	204.52	37.187	44.48	142.44	244.72	43.516	103.51	273.54	52.629	224.96	334.05	66.359	171.91	-143.5	1558.1	302.88	-222.45	1242	318.38
253	1.05	84.057	1244.7	266.7	-29.62	1494.3	455.8	-75.332	1509.2	124.39	-33.481	1823	289.81	39.331	984.82	426.73	40.489	993.72	160.12	-197.72	1035.4	329.81	-198.84	1030.8	226.88	-45.347	935.64	503.59	-55.471	944.68	77.319	-43.032	1086.4	491.73	-70.24	1075.1	84.944	-210.39	995.54	276.57	-99.72	636.82	487.23	-37.746	556.34	473.36	-106.29	548.45	473.98	-27.044	646.01	486.6	-103.31	480.22	473.17	-84.106	473.12	330.25	-247.2	394.67	487.84	-255.35	291.41	450.5	-296.49	345.38	476.49	-207.94	344.91	468.81	-433.71	191.39	439.47	-399.22	178.87	349.22	-503.53	209.1	377.09	-506.3	179.98	345.28	-516.51	177.43	409.06	-385.07	52.203	473.63	-346.79	50.828	351.27	-287.4	40.184	409.01	24.692	665.17	104.15	129.96	632.17	101.31	68.751	586.96	123.13	77.279	709.36	81.366	150.91	530.97	113.77	171.54	544.7	252.97	112.86	395.27	91.742	174.21	306.26	118.64	115.03	317.3	93.94	173.25	383	111.94	97.525	105.08	124.66	124.15	114.48	222.04	28.292	71.317	170.95	39.213	46.263	204.48	37.239	44.695	142.41	244.86	43.013	103.43	273.71	51.752	224.92	334.3	65.196	171.92	-138.08	1558.5	301.54	-216.74	1242.5	317.26
254	1.0542	89.758	1245.4	266.08	-24.476	1495.1	454.76	-69.431	1509.7	123.29	-28.19	1823.6	288.66	45.012	985.49	426.08	46.528	994.35	159.51	-191.92	1035.7	329.19	-192.92	1031.2	226.24	-39.449	936.01	502.99	-49.452	945.21	76.753	-37.291	1087.3	490.86	-64.235	1075.6	84.396	-204.5	995.95	275.91	-90.76	636.44	487.75	-27.866	556.56	474.66	-96.344	547.96	474.76	-18.167	646.37	487.54	-92.486	480.07	474.23	-72.362	472.43	331.38	-237.11	396.57	488.55	-246.85	293.45	451.3	-287.16	348.13	477.18	-198.61	346.17	469.67	-426.55	196.59	439.9	-392.2	183.02	349.75	-495.29	216.67	377.26	-499.09	187.82	345.28	-509.53	185.4	409.05	-382.86	55.168	473.58	-344.6	52.693	351.53	-286.01	39.846	409.34	29.54	665.2	103.8	134.65	631.75	100.87	73.276	586.83	122.79	82.301	709.16	80.989	155.12	530.38	113.48	176.1	544.26	252.59	116.05	395.08	91.561	176.62	305.53	118.5	117.53	317.09	93.775	176.34	382.28	111.74	97.81	105.11	124.74	124.48	114.34	222.04	28.434	71.525	170.92	39.242	46.403	204.44	37.284	44.88	142.38	244.98	42.604	103.34	273.85	51.001	224.88	334.52	64.201	171.92	-132.66	1559	300.2	-211.02	1243	316.16
255	1.0583	95.434	1246.2	265.49	-19.346	1495.9	453.73	-63.522	1510.3	122.2	-22.903	1824.2	287.52	50.643	986.23	425.47	52.528	995.05	158.94	-186.16	1036.1	328.59	-187.05	1031.8	225.62	-33.603	936.45	502.43	-43.463	945.82	76.2	-31.631	1088.3	490	-58.267	1076.1	83.861	-198.66	996.43	275.25	-81.716	636.12	488.29	-17.891	556.88	475.96	-86.29	547.54	475.54	-9.218	646.81	488.5	-81.512	480.03	475.27	-60.477	471.88	332.48	-226.78	398.5	489.25	-238.09	295.57	452.02	-277.57	350.92	477.83	-189.04	347.49	470.47	-419.05	201.87	440.22	-384.87	187.22	350.18	-486.65	224.26	377.32	-491.47	195.68	345.2	-502.13	193.45	408.95	-380.33	58.417	473.5	-342.04	54.738	351.79	-284.36	39.575	409.73	34.254	665.28	103.44	139.18	631.34	100.46	77.631	586.73	122.44	87.209	709	80.623	159.12	529.79	113.2	180.39	543.77	252.23	119.05	394.87	91.396	178.88	304.82	118.36	119.87	316.87	93.623	179.25	381.58	111.53	98.053	105.15	124.82	124.76	114.22	222.05	28.554	71.698	170.9	39.27	46.516	204.4	37.325	45.037	142.36	245.08	42.275	103.25	273.96	50.365	224.83	334.7	63.358	171.92	-127.24	1559.5	298.88	-205.28	1243.6	315.07
256	1.0625	101.09	1247	264.94	-14.233	1496.8	452.72	-57.604	1510.9	121.14	-17.621	1824.8	286.41	56.223	987.03	424.89	58.49	995.8	158.4	-180.45	1036.6	327.99	-181.2	1032.4	225	-27.814	936.95	501.9	-37.504	946.49	75.665	-26.058	1089.3	489.15	-52.329	1076.7	83.333	-192.86	996.98	274.6	-72.599	635.88	488.86	-7.8369	557.3	477.25	-76.145	547.21	476.32	-0.20812	647.35	489.47	-70.407	480.08	476.28	-48.484	471.49	333.55	-216.24	400.45	489.93	-229.07	297.75	452.65	-267.74	353.73	478.43	-179.25	348.88	471.2	-411.21	207.23	440.43	-377.23	191.46	350.5	-477.63	231.82	377.26	-483.46	203.51	345.01	-494.33	201.54	408.74	-377.43	61.943	473.4	-339.09	56.952	352.06	-282.4	39.394	410.16	38.841	665.42	103.07	143.58	630.95	100.07	81.824	586.67	122.1	92.012	708.87	80.271	162.94	529.22	112.93	184.42	543.26	251.91	121.87	394.65	91.244	180.99	304.13	118.21	122.06	316.66	93.483	181.97	380.89	111.32	98.26	105.19	124.89	125.01	114.12	222.06	28.656	71.84	170.89	39.298	46.606	204.38	37.361	45.169	142.34	245.18	42.016	103.17	274.06	49.831	224.78	334.85	62.654	171.9	-121.81	1560.1	297.57	-199.54	1244.3	314
257	1.0667	106.72	1247.9	264.41	-9.1339	1497.8	451.74	-51.676	1511.5	120.1	-12.344	1825.6	285.32	61.75	987.89	424.35	64.416	996.59	157.89	-174.78	1037.2	327.4	-175.39	1033.1	224.39	-22.081	937.52	501.41	-31.574	947.21	75.151	-20.577	1090.4	488.33	-46.418	1077.4	82.81	-187.11	997.61	273.95	-63.419	635.73	489.44	2.2808	557.84	478.52	-65.924	546.98	477.1	8.8514	648	490.44	-59.194	480.25	477.26	-36.419	471.28	334.57	-205.51	402.43	490.59	-219.81	299.98	453.17	-257.68	356.54	478.96	-169.24	350.33	471.85	-403.05	212.63	440.52	-369.29	195.72	350.69	-468.26	239.31	377.05	-475.07	211.26	344.7	-486.15	209.61	408.42	-374.14	65.73	473.27	-335.71	59.322	352.33	-280.11	39.325	410.64	43.308	665.6	102.71	147.85	630.59	99.704	85.865	586.65	121.75	96.715	708.79	79.938	166.59	528.66	112.68	188.21	542.72	251.61	124.51	394.43	91.101	182.96	303.46	118.06	124.1	316.44	93.352	184.53	380.22	111.11	98.437	105.24	124.97	125.23	114.04	222.07	28.742	71.955	170.87	39.325	46.677	204.35	37.393	45.277	142.33	245.26	41.816	103.08	274.15	49.39	224.72	334.97	62.071	171.88	-116.39	1560.7	296.28	-193.78	1245.1	312.95
258	1.0708	112.33	1248.8	263.92	-4.0485	1498.8	450.8	-45.737	1512.3	119.1	-7.0729	1826.4	284.25	67.225	988.8	423.85	70.307	997.43	157.43	-169.15	1037.8	326.81	-169.6	1033.8	223.78	-16.407	938.15	500.96	-25.673	947.98	74.662	-15.19	1091.5	487.55	-40.526	1078.1	82.291	-181.39	998.3	273.29	-54.187	635.68	490.03	12.447	558.5	479.76	-55.643	546.87	477.87	17.949	648.75	491.41	-47.898	480.54	478.2	-24.312	471.27	335.53	-194.62	404.43	491.2	-210.33	302.27	453.58	-247.44	359.36	479.42	-159.06	351.85	472.41	-394.59	218.05	440.48	-361.06	199.98	350.75	-458.56	246.68	376.68	-466.32	218.88	344.26	-477.59	217.61	407.97	-370.41	69.757	473.11	-331.87	61.83	352.61	-277.42	39.39	411.17	47.661	665.84	102.33	151.99	630.25	99.371	89.761	586.67	121.4	101.32	708.74	79.626	170.07	528.13	112.45	191.77	542.18	251.35	127	394.21	90.966	184.8	302.82	117.91	126.01	316.22	93.23	186.93	379.56	110.9	98.587	105.28	125.04	125.41	113.97	222.08	28.814	72.047	170.86	39.352	46.732	204.33	37.421	45.366	142.32	245.33	41.665	103	274.21	49.029	224.67	335.07	61.595	171.85	-110.96	1561.5	295	-188.03	1245.9	311.9
259	1.075	117.92	1249.8	263.48	1.0246	1499.9	449.89	-39.786	1513	118.12	-1.8076	1827.2	283.21	72.647	989.77	423.41	76.164	998.29	157.01	-163.57	1038.4	326.23	-163.85	1034.6	223.18	-10.791	938.86	500.55	-19.801	948.8	74.202	-9.8978	1092.6	486.8	-34.648	1078.8	81.773	-175.72	999.07	272.64	-44.913	635.74	490.62	22.648	559.3	480.97	-45.315	546.88	478.62	27.075	649.62	492.35	-36.543	480.96	479.11	-12.196	471.46	336.44	-183.59	406.45	491.76	-200.64	304.6	453.88	-237.02	362.17	479.81	-148.71	353.43	472.88	-385.84	223.45	440.29	-352.54	204.21	350.68	-448.57	253.88	376.15	-457.23	226.31	343.69	-468.7	225.47	407.38	-366.22	73.995	472.94	-327.53	64.458	352.9	-274.29	39.612	411.75	51.905	666.13	101.95	156.01	629.95	99.072	93.521	586.74	121.04	105.84	708.74	79.338	173.39	527.62	112.24	195.13	541.63	251.13	129.33	393.98	90.837	186.52	302.2	117.77	127.81	316	93.114	189.19	378.93	110.71	98.715	105.33	125.1	125.58	113.91	222.09	28.875	72.119	170.86	39.379	46.774	204.31	37.448	45.438	142.31	245.39	41.555	102.92	274.27	48.738	224.61	335.14	61.211	171.82	-105.52	1562.2	293.75	-182.28	1246.8	310.87
260	1.0792	123.5	1250.8	263.07	6.0872	1501	449.01	-33.823	1513.8	117.17	3.4527	1828.1	282.18	78.017	990.79	423.01	81.99	999.18	156.63	-158.02	1039.2	325.65	-158.13	1035.5	222.57	-5.2318	939.63	500.19	-13.962	949.65	73.774	-4.6985	1093.7	486.11	-28.779	1079.6	81.259	-170.1	999.9	271.99	-35.608	635.93	491.2	32.872	560.23	482.13	-34.954	547.02	479.36	36.219	650.62	493.27	-25.151	481.52	479.97	-0.097013	471.86	337.27	-172.46	408.48	492.26	-190.77	306.97	454.06	-226.46	364.97	480.11	-138.22	355.07	473.26	-376.83	228.81	439.98	-343.74	208.4	350.49	-438.32	260.86	375.44	-447.83	233.5	342.97	-459.49	233.15	406.65	-361.53	78.408	472.74	-322.67	67.185	353.19	-270.68	40.015	412.37	56.045	666.47	101.58	159.93	629.67	98.807	97.15	586.85	120.69	110.27	708.79	79.076	176.56	527.13	112.05	198.3	541.08	250.93	131.53	393.75	90.711	188.13	301.61	117.64	129.49	315.79	93.005	191.3	378.32	110.52	98.826	105.38	125.16	125.72	113.87	222.1	28.925	72.175	170.85	39.405	46.806	204.29	37.472	45.495	142.3	245.44	41.476	102.84	274.31	48.505	224.56	335.21	60.905	171.79	-100.07	1563.1	292.53	-176.55	1247.7	309.84
